<?xml version="1.0" encoding="UTF-8" standalone="no"?>
<svg
   xmlns:dc="http://purl.org/dc/elements/1.1/"
   xmlns:cc="http://creativecommons.org/ns#"
   xmlns:rdf="http://www.w3.org/1999/02/22-rdf-syntax-ns#"
   xmlns:svg="http://www.w3.org/2000/svg"
   xmlns="http://www.w3.org/2000/svg"
   xmlns:sodipodi="http://sodipodi.sourceforge.net/DTD/sodipodi-0.dtd"
   xmlns:inkscape="http://www.inkscape.org/namespaces/inkscape"
   inkscape:version="1.0 (1.0+r73+1)"
   sodipodi:docname="Pelaguru Logo-all-path.svg"
   viewBox="0 0 946.52 392.70135"
   height="392.70135"
   width="946.52002"
   xml:space="preserve"
   id="svg2"
   version="1.1"><metadata
     id="metadata8"><rdf:RDF><cc:Work
         rdf:about=""><dc:format>image/svg+xml</dc:format><dc:type
           rdf:resource="http://purl.org/dc/dcmitype/StillImage" /><dc:title></dc:title></cc:Work></rdf:RDF></metadata><defs
     id="defs6"><clipPath
       id="clipPath32"
       clipPathUnits="userSpaceOnUse"><path
         id="path30"
         d="M 0,595.276 H 841.89 V 0 H 0 Z" /></clipPath></defs><sodipodi:namedview
     inkscape:current-layer="text18"
     inkscape:window-maximized="1"
     inkscape:window-y="27"
     inkscape:window-x="46"
     inkscape:cy="220.37155"
     inkscape:cx="462.17236"
     inkscape:zoom="1.0961302"
     showgrid="false"
     id="namedview4"
     inkscape:window-height="1016"
     inkscape:window-width="1874"
     inkscape:pageshadow="2"
     inkscape:pageopacity="0"
     guidetolerance="10"
     gridtolerance="10"
     objecttolerance="10"
     borderopacity="1"
     bordercolor="#666666"
     pagecolor="#ffffff" /><g
     transform="matrix(1.3333333,0,0,-1.3333333,0,793.70133)"
     inkscape:label="Pelaguru Logo"
     inkscape:groupmode="layer"
     id="g10"><g
       transform="translate(-65.813422,149.53376)"
       id="g890"><a
         id="a910"><g
           style="font-variant:normal;font-weight:normal;font-stretch:normal;font-size:256.664px;font-family:SARA-SETH;-inkscape-font-specification:SARA-SETH;writing-mode:lr-tb;fill:#627e37;fill-opacity:1;fill-rule:nonzero;stroke:none"
           id="text14"
           transform="matrix(1,0,0,-1,71.1064,209.1816)"
           aria-label="me,"><path
             id="path914"
             d="m 131.41197,-93.169033 q 0,11.036553 -10.0099,11.036553 -7.18659,0 -7.18659,-7.699921 0,-6.929928 7.95658,-8.469912 -4.61995,-6.159937 -10.26656,-6.159937 -8.21324,0 -14.373179,5.133281 -1.539984,1.28332 -4.106624,4.619952 -2.309976,3.079968 -5.646608,7.699921 18.479811,0 30.799681,10.779888 12.31987,10.779888 12.31987,29.003032 0,16.169832 -10.0099,29.003032 -9.75323,12.576536 -26.436387,16.169832 L 85.98244,-1.28332 70.325936,-1.026656 q -68.785952,0 -68.785952,-38.242936 0,-19.2498 13.089864,-32.339664 10.779888,-10.779888 31.826336,-15.913168 l -6.159936,-9.239905 q -3.84996,-5.133281 -9.239904,-5.133281 -2.309976,0 -7.443256,1.53999 6.929928,1.283315 6.929928,8.213243 0,8.469913 -8.213248,8.469913 -9.753232,0 -9.753232,-11.806545 0,-14.116521 18.479808,-14.116521 5.903272,0 9.753232,1.79665 2.309976,0.76999 6.159936,6.92993 3.84996,5.903269 5.646608,6.929925 1.796648,2.053312 8.213248,5.903272 2.823304,1.283321 3.593296,4.106625 0,4.619952 -3.336632,4.876616 H 47.226176 q -10.26656,0 -21.046448,9.753232 -10.523224,9.753232 -10.523224,20.019792 0,16.169832 27.719712,23.09976 15.39984,3.84996 31.313008,3.84996 11.54988,0 26.693056,-6.159936 18.73647,-8.213248 18.73647,-22.329768 0,-21.559776 -29.259693,-26.693056 l -7.699921,-0.256664 -8.726576,-0.769992 q -3.84996,-0.513328 -4.619952,-4.106624 l 1.28332,-1.539984 4.619952,-4.106625 q 6.159936,-4.363288 6.929928,-5.646608 10.779889,-16.939825 18.223142,-17.966475 l 10.52323,-0.51333 q 7.95658,0 13.85985,5.38994 6.15994,5.13328 6.15994,13.859857 z" /><path
             id="path916"
             d="m 199.6847,3.336632 q 0,9.496568 -11.54988,17.96648 -10.52323,6.4166 -18.22315,6.4166 -13.85985,0 -22.58643,-10.26656 -8.46991,-10.009896 -8.46991,-24.38308 0,-33.109656 27.20638,-60.059376 l -13.85985,-0.256664 q -4.36329,-1.539984 -5.13328,-5.13328 0,-5.13328 8.21325,-5.13328 h 24.12641 q 5.13328,0.769992 5.13328,7.186592 0,3.079968 -0.76999,3.84996 l -7.44326,5.389944 q -13.34652,10.26656 -21.30311,28.23304 l -0.76999,4.106624 -0.25666,7.956584 q 0,7.186592 6.15993,19.506464 7.95659,14.886512 18.47981,14.886512 4.61995,0 9.2399,-7.956584 4.61996,-7.69992 6.67327,-7.69992 5.13328,0 5.13328,5.389944 z" /><path
             id="path918"
             d="m 331.86671,0.256664 q 0,4.876616 -8.21325,17.453152 -21.04645,31.826336 -58.26273,31.826336 -50.81947,0 -69.04261,-43.889544 -2.30998,-5.903272 -2.30998,-26.693056 l -0.25666,-13.859856 q 0,-19.506464 16.16983,-40.809576 20.27646,-26.94972 46.19952,-35.16297 7.69992,-2.05331 21.55978,-2.05331 17.70981,0 29.77302,13.089863 10.26656,12.576537 10.26656,31.569673 0,20.53312 -10.26656,36.446288 -12.8332,19.763128 -36.18962,19.763128 -12.57654,0 -21.30312,-5.903272 -8.46991,-5.903272 -8.46991,-18.223144 0,-6.159936 1.02666,-11.036552 1.02665,-4.876616 4.10662,-11.293216 5.13328,-11.293216 13.60319,-16.939824 l -14.62984,-0.256664 q -5.38995,-0.769992 -5.38995,-5.13328 0,-5.13328 9.23991,-5.13328 l 30.28635,0.513328 6.4166,1.026656 q 3.07997,1.28332 3.07997,5.13328 0,3.336632 -3.5933,5.13328 l -7.18659,0.513328 q -7.95659,2.309976 -14.62985,8.726576 -6.67326,6.159936 -6.67326,14.373184 0,14.629848 20.01979,14.629848 14.62985,0 22.58643,-10.26656 6.92993,-9.239904 6.92993,-24.639744 0,-31.826336 -35.41963,-31.826336 -9.49657,0 -15.39984,2.56664 l -13.34653,8.469911 q -32.59633,21.816441 -32.59633,60.316041 0,24.38308 21.55978,44.146208 20.78978,18.479808 46.19952,18.479808 30.79968,0 43.37621,-26.436392 3.84996,-9.239904 6.4166,-9.496568 4.36329,0 4.36329,4.876616 z" /></g></a><g
         style="font-variant:normal;font-weight:normal;font-stretch:normal;font-size:176.688px;font-family:TimeBurner;-inkscape-font-specification:TimeBurner;writing-mode:lr-tb;fill:#565757;fill-opacity:1;fill-rule:nonzero;stroke:none"
         id="text18"
         transform="matrix(1,0,0,-0.84033625,445.8457,208.7129)"
         aria-label="Guru"><path
           id="path921"
           d="m 92.584514,-44.172001 q 0,9.541152 -3.710448,18.022176 -3.53376,8.304337 -9.894528,14.665105 -6.184081,6.1840799 -14.665105,9.894528 -8.304336,3.53376 -17.845488,3.53376 -9.541152,0 -18.022176,-3.53376 Q 19.965744,-5.3006401 13.604976,-11.48472 7.4208961,-17.845488 3.7104481,-26.149825 0.176688,-34.630849 0.176688,-44.172001 v -40.638241 q 0,-9.541152 3.5337601,-17.845488 3.710448,-8.48102 9.8945279,-14.6651 6.360768,-6.36077 14.841793,-9.89453 8.481024,-3.71045 18.022176,-3.71045 12.721536,0 23.322816,6.36077 10.601281,6.18408 16.608673,16.78536 l -7.95096,4.59389 q -4.770577,-8.48103 -13.251601,-13.42829 -8.481024,-5.12395 -18.728928,-5.12395 -7.774272,0 -14.488416,3.00369 -6.714144,2.82701 -11.661409,7.95096 -4.947264,4.94727 -7.95096,11.66141 -2.8270078,6.714144 -2.8270078,14.311728 v 40.638241 q 0,7.597584 2.8270078,14.311728 3.003696,6.714145 7.95096,11.838097 4.947265,4.947264 11.661409,7.95096 6.714144,2.8270079 14.488416,2.8270079 7.597584,0 14.311728,-2.8270079 6.714144,-3.003696 11.661408,-7.95096 5.123953,-5.123952 7.950961,-11.838097 3.003696,-6.714144 3.003696,-14.311728 v -5.30064 H 53.713153 v -9.187776 h 29.683585 9.187776 v 9.187776 5.30064 z" /><path
           id="path923"
           d="m 142.05727,1.76688 q -7.24421,0 -13.60498,-2.65032002 -6.18408,-2.82700808 -10.95465,-7.42089618 -4.59389,-4.7705758 -7.4209,-10.9546558 -2.65032,-6.360769 -2.65032,-13.604977 V -88.52069 h 9.18778 v 55.656721 q 0,5.30064 1.94357,10.071217 1.94356,4.593888 5.30064,8.127648 3.53376,3.357072 8.12764,5.3006398 4.77058,1.9435681 10.07122,1.9435681 5.30064,0 9.89453,-1.9435681 4.59389,-1.9435678 7.95096,-5.3006398 3.53376,-3.53376 5.47733,-8.127648 1.94357,-4.770577 1.94357,-10.071217 V -88.52069 h 9.36446 v 55.656721 q 0,7.244208 -2.82701,13.604977 -2.65032,6.18408 -7.42089,10.9546558 -4.59389,4.5938881 -10.95466,7.42089618 Q 149.12479,1.76688 142.05727,1.76688 Z" /><path
           id="path925"
           d="m 201.07116,0 h -9.18777 v -44.172001 q 0,-9.541152 3.53376,-18.022176 3.71044,-8.481024 9.89452,-14.665105 6.36077,-6.360768 14.66511,-9.894528 8.48102,-3.710448 18.02217,-3.710448 v 9.364464 q -7.59758,0 -14.31172,3.003696 -6.71415,2.827008 -11.8381,7.774273 -4.94726,4.947264 -7.95096,11.838096 -2.82701,6.714144 -2.82701,14.311728 z" /><path
           id="path927"
           d="m 287.82503,1.76688 q -7.24421,0 -13.60497,-2.65032002 -6.18408,-2.82700808 -10.95466,-7.42089618 -4.59389,-4.7705758 -7.4209,-10.9546558 -2.65032,-6.360769 -2.65032,-13.604977 V -88.52069 h 9.18778 v 55.656721 q 0,5.30064 1.94357,10.071217 1.94357,4.593888 5.30064,8.127648 3.53376,3.357072 8.12765,5.3006398 4.77057,1.9435681 10.07121,1.9435681 5.30064,0 9.89453,-1.9435681 4.59389,-1.9435678 7.95096,-5.3006398 3.53376,-3.53376 5.47733,-8.127648 1.94357,-4.770577 1.94357,-10.071217 V -88.52069 h 9.36446 v 55.656721 q 0,7.244208 -2.82701,13.604977 -2.65032,6.18408 -7.42089,10.9546558 -4.59389,4.5938881 -10.95466,7.42089618 Q 294.89255,1.76688 287.82503,1.76688 Z" /></g><g
         id="g20"
         transform="translate(415.4155,343.1447)"><path
           d="M 0,0 H 8.158 L 12.237,-90.245 8.158,-136 H 0 Z"
           style="fill:#627d36;fill-opacity:1;fill-rule:nonzero;stroke:none"
           id="path22" /></g><path
         d="m 423.573,343.145 h 8.158 v -136 h -8.158 z"
         style="fill:#839e3c;fill-opacity:1;fill-rule:nonzero;stroke:none"
         id="path24" /><g
         id="g26"><g
           id="g28"
           clip-path="url(#clipPath32)"><g
             id="g34"
             transform="translate(326.8701,358.2981)"><path
               d="M 0,0 C 22.856,-23.458 60.84,-34.972 100.119,-33.354 L 62.108,29.48 -10.158,79.828 C -25.232,53.367 -22.855,23.458 0,0"
               style="fill:#627d36;fill-opacity:1;fill-rule:nonzero;stroke:none"
               id="path36" /></g><g
             id="g38"
             transform="translate(316.7124,438.1257)"><path
               d="m 0,0 110.277,-113.181 c 15.075,26.461 12.697,56.37 -10.158,79.827 C 77.263,-9.896 39.279,1.619 0,0"
               style="fill:#839e3c;fill-opacity:1;fill-rule:nonzero;stroke:none"
               id="path40" /></g><g
             id="g42"
             transform="translate(435.4141,379.6037)"><path
               d="m 0,0 c -17.217,-15.463 -20.682,-36.045 -11.883,-54.809 l 50.441,30.154 32.628,44.456 C 44.154,22.188 17.217,15.463 0,0"
               style="fill:#627d36;fill-opacity:1;fill-rule:nonzero;stroke:none"
               id="path44" /></g><g
             id="g46"
             transform="translate(506.5996,399.4045)"><path
               d="m 0,0 -83.068,-74.61 c 27.031,-2.388 53.968,4.338 71.185,19.801 C 5.334,-39.345 8.799,-18.764 0,0"
               style="fill:#839e3c;fill-opacity:1;fill-rule:nonzero;stroke:none"
               id="path48" /></g></g></g></g></g></svg>
