<?xml version="1.0" encoding="UTF-8" standalone="no"?>
<svg
   xmlns:dc="http://purl.org/dc/elements/1.1/"
   xmlns:cc="http://creativecommons.org/ns#"
   xmlns:rdf="http://www.w3.org/1999/02/22-rdf-syntax-ns#"
   xmlns:svg="http://www.w3.org/2000/svg"
   xmlns="http://www.w3.org/2000/svg"
   xmlns:sodipodi="http://sodipodi.sourceforge.net/DTD/sodipodi-0.dtd"
   xmlns:inkscape="http://www.inkscape.org/namespaces/inkscape"
   inkscape:version="1.0 (1.0+r73+1)"
   sodipodi:docname="temp-user.svg"
   viewBox="0 0 1336.6667 1336.6668"
   height="1336.6667"
   width="1336.6667"
   id="svg2"
   version="1.1">
  <metadata
     id="metadata8">
    <rdf:RDF>
      <cc:Work
         rdf:about="">
        <dc:format>image/svg+xml</dc:format>
        <dc:type
           rdf:resource="http://purl.org/dc/dcmitype/StillImage" />
        <dc:title></dc:title>
      </cc:Work>
    </rdf:RDF>
  </metadata>
  <defs
     id="defs6" />
  <sodipodi:namedview
     inkscape:current-layer="layer1"
     inkscape:window-maximized="1"
     inkscape:window-y="27"
     inkscape:window-x="46"
     inkscape:cy="623.92894"
     inkscape:cx="351.85149"
     inkscape:zoom="0.5"
     units="in"
     showgrid="false"
     id="namedview4"
     inkscape:window-height="1016"
     inkscape:window-width="1874"
     inkscape:pageshadow="2"
     inkscape:pageopacity="0"
     guidetolerance="10"
     gridtolerance="10"
     objecttolerance="10"
     borderopacity="1"
     bordercolor="#666666"
     pagecolor="#ffffff" />
  <g
     inkscape:label="Image 1"
     id="layer1"
     inkscape:groupmode="layer">
    <rect
       y="0.0042327642"
       x="0.0051699877"
       height="1336.2719"
       width="1336.6614"
       id="rect840"
       style="opacity:0.65;fill:#e6e6e6;fill-opacity:1;stroke-width:1.0543;stroke-opacity:0.21" />
  </g>
  <g
     sodipodi:insensitive="true"
     id="g10"
     inkscape:label="Image"
     inkscape:groupmode="layer">
    <path
       id="path837"
       d="m 1187.5742,1214.7062 c 7.7917,-2.5965 13.326,-5.9892 18.8829,-11.5755 6.5894,-6.6245 10.6989,-14.7493 12.3574,-24.4312 1.1546,-6.7408 0.9551,-8.7091 -2.4914,-24.57 -10.6597,-49.0564 -24.4833,-89.0796 -45.5945,-132.0083 -44.3845,-90.25433 -109.9185,-164.93186 -193.47624,-220.47095 -37.13719,-24.68428 -68.60164,-40.40101 -122.49881,-61.18897 -1.6196,-0.62472 -0.27123,-1.99482 6.75096,-6.85981 33.43526,-23.16405 66.10358,-56.7525 88.7226,-91.22152 54.63559,-83.2591 69.71989,-187.04966 41.0058,-282.14932 -26.97107,-89.3267 -89.86418,-163.78972 -172.71096,-204.48296 -22.62083,-11.11106 -34.80828,-15.95605 -54.9616,-21.84921 -29.43207,-8.60646 -53.17681,-12.29687 -85.12071,-13.2296 -57.86432,-1.68959 -107.65569,9.10282 -159.32994,34.53527 -33.79536,16.63301 -62.14423,36.91996 -88.79362,63.54227 -55.12391,55.06787 -87.66241,122.69657 -97.44868,202.53978 -2.03263,16.58348 -1.7085,58.7742 0.58784,76.51082 8.36435,64.60582 32.09167,120.76086 72.26323,171.02416 18.19349,22.76397 48.5078,50.99595 70.35887,65.52595 4.25521,2.82958 7.60411,5.24414 7.44192,5.36574 -0.16211,0.12169 -6.11747,2.38925 -13.23407,5.039 -171.22345,63.75374 -303.66907,213.98032 -346.08355,392.54575 -2.15136,9.057 -4.65512,19.5375 -5.56397,23.2901 -5.24,21.6353 4.32357,42.2377 23.84784,51.3742 27.01782,12.6431 58.12217,-4.4944 62.17974,-34.2592 2.34604,-17.2098 13.70933,-55.7059 24.50259,-83.0087 24.2631,-61.3769 59.72494,-114.99793 107.15259,-162.02303 69.74614,-69.15396 159.05393,-114.76729 255.48195,-130.48546 50.41977,-8.21869 105.45284,-7.99136 156.68059,0.64708 66.19947,11.16321 132.06975,38.04923 188.18069,76.80907 93.61434,64.66611 162.04424,163.09804 189.00604,271.87284 2.3009,9.2825 4.5992,17.89 5.1074,19.1277 0.5082,1.2376 1.198,4.9475 1.5328,8.2442 1.3629,13.4218 11.1531,26.8075 24.1402,33.0057 6.0426,2.8838 9.0281,3.5708 16.9776,3.9065 6.0968,0.2575 11.3018,-0.1444 14.1465,-1.0924 z M 632.30811,705.91175 C 560.41888,695.1325 498.23398,655.39107 458.11027,594.58454 c -18.60015,-28.1881 -31.14275,-60.24712 -37.50983,-95.87568 -2.21245,-12.38018 -2.57591,-18.22366 -2.57591,-41.41759 0,-23.19393 0.36346,-29.03741 2.57591,-41.4176 9.70239,-54.29209 33.53149,-99.86281 72.09488,-137.87414 75.30682,-74.22878 190.19071,-92.90757 285.3209,-46.38978 122.56541,59.93337 174.80621,204.37036 119.08256,329.24322 -18.48484,41.42319 -50.88474,79.57553 -89.49286,105.38173 -16.47253,11.01047 -41.56746,23.25662 -60.03306,29.2956 -20.54674,6.71965 -36.30619,9.92061 -61.81968,12.55627 -8.81623,0.91079 -41.8247,-0.43248 -53.44507,-2.17482 z"
       style="fill:#839e3c;fill-opacity:1;stroke-width:1.12516" />
  </g>
</svg>
